<?xml version="1.0" encoding="UTF-8" standalone="no"?>
<svg xmlns:svg="http://www.w3.org/2000/svg" xmlns="http://www.w3.org/2000/svg" version="1.0" width="703.896" height="569.85797" xml:space="preserve">
<style type="text/css"><![CDATA[
   text {font-family:'Helvetica', 'Arial', 'sans-serif'; font-size:100px}
]]></style>
<g transform="translate(50,37.052971)">
<polygon points="257.002,408.811 249.004,403.811 249.004,264.807 253.003,262.307 257.002,264.807 257.002,408.811" />
<polygon points="128.501,482.805 128.501,473.811 249.004,403.811 257.002,408.811 128.501,482.805" />
<polygon points="0,408.811 8.003,403.811 128.501,473.811 128.501,482.805 0,408.811" />
<polygon points="0,259.807 8.003,264.807 8.003,403.811 0,408.811 0,259.807" />
<polygon points="128.501,185.808 128.501,194.807 8.003,264.807 0,259.807 128.501,185.808" />
<polygon points="253.003,257.815 253.003,262.307 249.004,264.807 128.501,194.807 128.501,185.808 253.003,257.815" />
<polygon points="377.5,185.808 377.5,195.31 257.002,264.807 253.003,262.307 253.003,257.815 377.5,185.808" />
<polygon points="462.998,235.31 459.004,242.307 377.5,195.31 377.5,185.808 462.998,235.31" />
<rect width="8" height="114.004" x="223.50101" y="277.30701" />
<rect width="8" height="114.237" x="74.969002" y="362.689" transform="matrix(-0.4964,0.8681,-0.8681,-0.4964,482.6498,559.6186)" />
<rect width="8" height="114.234" x="74.973999" y="191.689" transform="matrix(-0.4962,-0.8682,0.8682,-0.4962,-97.809,440.8564)" />
<rect width="8" height="99.501999" x="360.49799" y="98.307999" />
<rect width="8" height="99.501999" x="386.504" y="98.307999" />
<text x="462.001" y="301.313">OH</text>
<text x="337.498" y="85.7988">O</text>
</g>
</svg>
